<svg xmlns="http://www.w3.org/2000/svg" viewBox="0 0 428.08 182.2"><defs><style>.cls-1{isolation:isolate;}.cls-2{fill:#424165;}</style></defs><g id="レイヤー_2" data-name="レイヤー 2"><g id="レイヤー_1-2" data-name="レイヤー 1"><g id="NEW" class="cls-1"><g class="cls-1"><path class="cls-2" d="M86.26,105H71.17l-54-83.72a34.73,34.73,0,0,1-3.37-6.59h-.44q.58,3.37.58,14.43V105H1.59V0h16L70.14,82.4q3.3,5.13,4.25,7h.3A110.61,110.61,0,0,1,74,74V0H86.26Z"/><path class="cls-2" d="M169.46,105H113.8V0h53.32V11.13h-41V46.07H164V57.13H126.1V93.9h43.36Z"/><path class="cls-2" d="M314.19,0,284.52,105H270.1L248.49,28.27a48.12,48.12,0,0,1-1.69-10.69h-.29a54.39,54.39,0,0,1-1.9,10.54L222.85,105H208.57L177.81,0h13.55L213.7,80.57a53.1,53.1,0,0,1,1.76,10.54h.36a62.83,62.83,0,0,1,2.27-10.54L241.31,0H253.1l22.27,81.15A59.62,59.62,0,0,1,277.13,91h.29a57.73,57.73,0,0,1,2-10.11L300.86,0Z"/></g></g><g id="PRODUCE" class="cls-1"><g class="cls-1"><path class="cls-2" d="M8.2,154.56V181H0V111H19.24q11.24,0,17.41,5.47t6.17,15.43A21.2,21.2,0,0,1,36,148.22q-6.85,6.34-18.53,6.34Zm0-36.13v28.71h8.6q8.49,0,13-3.88t4.47-11q0-13.86-16.41-13.87Z"/><path class="cls-2" d="M106.2,181H96.44L84.72,161.4a43.09,43.09,0,0,0-3.13-4.66,17.51,17.51,0,0,0-3.1-3.15,10.56,10.56,0,0,0-3.42-1.78,13.82,13.82,0,0,0-4.12-.57H64.21V181H56V111H76.9a29.67,29.67,0,0,1,8.48,1.15,18.9,18.9,0,0,1,6.73,3.49,16.14,16.14,0,0,1,4.47,5.83,19.29,19.29,0,0,1,1.61,8.18,19.58,19.58,0,0,1-1.1,6.72A17.46,17.46,0,0,1,94,141.82a19,19,0,0,1-4.88,4.08,25.26,25.26,0,0,1-6.42,2.61v.2a14.57,14.57,0,0,1,3,1.78,16.55,16.55,0,0,1,2.46,2.37A30.13,30.13,0,0,1,90.5,156c.77,1.15,1.62,2.5,2.57,4Zm-42-62.6v25.39H75.34A17.1,17.1,0,0,0,81,142.9a13.18,13.18,0,0,0,4.52-2.67,12.09,12.09,0,0,0,3-4.24,14.36,14.36,0,0,0,1.07-5.64q0-5.62-3.64-8.77t-10.52-3.15Z"/><path class="cls-2" d="M143.07,182.2q-14.9,0-23.86-9.81t-9-25.54q0-16.89,9.13-26.95t24.86-10.06q14.5,0,23.36,9.76t8.86,25.54q0,17.15-9.08,27.1T143.07,182.2Zm.58-64.94a22.57,22.57,0,0,0-17.92,8q-6.89,8-6.88,20.9t6.71,20.82a21.9,21.9,0,0,0,17.51,7.89q11.52,0,18.16-7.52t6.64-21.05q0-13.86-6.44-21.43T143.65,117.26Z"/><path class="cls-2" d="M190.23,181V111h19.34q37,0,37,34.13,0,16.22-10.28,26.05T208.79,181Zm8.21-62.6v55.18h10.45q13.77,0,21.43-7.38T238,145.34q0-26.91-28.61-26.91Z"/><path class="cls-2" d="M311.57,152.71q0,29.49-26.61,29.49-25.48,0-25.49-28.37V111h8.21V153.3q0,21.52,18.16,21.53,17.54,0,17.53-20.8V111h8.2Z"/><path class="cls-2" d="M376.71,178.1q-7.77,4.1-19.34,4.1-14.94,0-23.92-9.62t-9-25.24q0-16.8,10.11-27.15t25.64-10.35q10,0,16.5,2.88v8.74a33.46,33.46,0,0,0-16.6-4.2q-12.06,0-19.56,8.06t-7.49,21.53q0,12.79,7,20.39t18.39,7.59a34.43,34.43,0,0,0,18.26-4.69Z"/><path class="cls-2" d="M428.08,181H391V111h35.54v7.42H399.17v23.29h25.29v7.38H399.17v24.51h28.91Z"/></g></g></g></g></svg>