<svg xmlns="http://www.w3.org/2000/svg" viewBox="0 0 274.89 78.51"><defs><style>.cls-1{isolation:isolate;}.cls-2{fill:#424165;}</style></defs><g id="レイヤー_2" data-name="レイヤー 2"><g id="レイヤー_1-2" data-name="レイヤー 1"><g id="新しいことに_挑戦_して_新しいことを_生み出す_" data-name="新しいことに 挑戦 して 新しいことを 生み出す " class="cls-1"><g class="cls-1"><path class="cls-2" d="M13.56,17.34a.21.21,0,0,1-.24.24L9.7,17.52H8.76a10.69,10.69,0,0,0,2.07,2.26,19.66,19.66,0,0,0,2.37,1.58,3.39,3.39,0,0,0-.72,1.05c-.12.24-.2.35-.26.35s-.22-.08-.43-.26a13.63,13.63,0,0,1-3.66-4q0,2.82.13,6.09c.05,1.58.07,2.53.07,2.84,0,.16-.08.24-.26.24H6.72a.22.22,0,0,1-.25-.24c0-.44,0-1.54.06-3.29.06-2.07.11-3.84.14-5.29A19.25,19.25,0,0,1,1.55,25a.94.94,0,0,1-.44.23c-.07,0-.18-.11-.3-.35A3.32,3.32,0,0,0,0,23.79a18.71,18.71,0,0,0,6-6.27H4.47l-3.66.06a.21.21,0,0,1-.24-.24v-1.2a.22.22,0,0,1,.24-.25L4.47,16H6.58v-.06a14.81,14.81,0,0,0-.19-2.81q.93,0,1.83.15c.2,0,.31.12.31.25a1,1,0,0,1-.12.41,6.76,6.76,0,0,0-.16,2V16H9.7l3.62-.06a.22.22,0,0,1,.24.25Zm.52-5a.22.22,0,0,1-.25.24l-3.72-.06H4.32L.6,12.54c-.16,0-.23-.08-.23-.24V11.06c0-.16.07-.23.23-.23l3.72.05h4A25,25,0,0,0,9.65,7.47a5.25,5.25,0,0,0,.28-1.3c.68.15,1.21.29,1.61.42s.37.2.37.37a.56.56,0,0,1-.21.35,2.29,2.29,0,0,0-.45.69,29.41,29.41,0,0,1-1.32,2.88h.18l3.72-.05c.16,0,.25.07.25.23Zm-.49-7.07c0,.16-.08.23-.25.23l-3.55,0h-5l-3.57,0c-.16,0-.23-.07-.23-.23V4.06c0-.17.07-.25.23-.25l3.57.07H6.53V2.94A9.14,9.14,0,0,0,6.33.79,17.25,17.25,0,0,1,8.28.94c.26,0,.39.1.39.23a1.4,1.4,0,0,1-.17.54,2.88,2.88,0,0,0-.17,1.23v.94H9.79l3.55-.07a.22.22,0,0,1,.25.25ZM5.9,9.39a.49.49,0,0,1,0,.15c0,.1-.1.2-.29.27l-.75.31a1.58,1.58,0,0,1-.33.08q-.16,0-.21-.24A14.65,14.65,0,0,0,3.21,7a.43.43,0,0,1-.06-.17c0-.08.12-.16.37-.25L4.2,6.3a.67.67,0,0,1,.19,0c.08,0,.16.06.22.18A12.57,12.57,0,0,1,5.9,9.39Zm21.61,2.94a.21.21,0,0,1-.23.24l-3.64-.06H23.5V23.1l.05,4.47a.2.2,0,0,1-.23.23H21.84a.2.2,0,0,1-.23-.23l.06-4.47V12.51H17.2a37.89,37.89,0,0,1-.75,8.79,15.41,15.41,0,0,1-3.06,5.93c-.17.23-.31.34-.43.34a.68.68,0,0,1-.39-.24,3.16,3.16,0,0,0-1.13-.68,13.68,13.68,0,0,0,3.41-6.3,41.12,41.12,0,0,0,.6-8.44V8.22A37.57,37.57,0,0,0,15.25,4a11,11,0,0,1,1.95.6,27.2,27.2,0,0,0,6-2.34,7.14,7.14,0,0,0,1.51-1.08A9,9,0,0,1,26,2.52a.71.71,0,0,1,.17.41c0,.15-.13.24-.39.28a3.22,3.22,0,0,0-1.1.35A39.15,39.15,0,0,1,17.2,6.27v4.61h6.44l3.64-.05a.2.2,0,0,1,.23.23Z"/><path class="cls-2" d="M29.84,2h2.24q-.51,15.41-.51,18.57c0,1.64.32,2.77,1,3.38a4.73,4.73,0,0,0,3.31.91,6.88,6.88,0,0,0,5.23-2,11.77,11.77,0,0,0,2.61-5.73l2,1q-2,8.73-9.81,8.73c-2.48,0-4.2-.51-5.14-1.54s-1.31-2.46-1.31-4.61c0-1.1.05-3.78.13-8Q29.78,4.93,29.84,2Z"/><path class="cls-2" d="M55.12,17.7,57,19q-1.44,7.24-4.86,7.24a3.55,3.55,0,0,1-3.3-2.18,19.77,19.77,0,0,1-1.53-6.92Q47,14.35,47,9.57l0-5.64h2.17l0,4.68c0,3.78.09,6.57.25,8.37q.57,6.9,2.61,6.9c.69,0,1.28-.51,1.74-1.53A25.45,25.45,0,0,0,55.12,17.7Zm4.5-11.46,2-.57q4.08,6.2,5.2,16.23l-2.26.37Q63.42,12.27,59.62,6.24Z"/><path class="cls-2" d="M69.84,16.52l2,.6A6.8,6.8,0,0,0,70.65,21q0,3.41,6.15,3.41A66.6,66.6,0,0,0,84.42,24l0,2.26c-2.35.16-4.9.23-7.68.23s-4.82-.44-6.15-1.33a4.72,4.72,0,0,1-2-4.2A8.28,8.28,0,0,1,69.84,16.52Zm.4-12.68c1.24.06,3,.09,5.36.09s5-.11,7.78-.33l.35,2A44.19,44.19,0,0,0,76,10.44l-1.35-1.5q.64-.46,5.16-3.27a39.56,39.56,0,0,1-4.84.23c-1.22,0-2.79,0-4.7-.11Z"/><path class="cls-2" d="M92.18,11.46c2-1.23,4.38-2.52,7-3.9l1.07,1.89a64.28,64.28,0,0,0-9.57,5.34Q87,17.42,87,20.61q0,3.87,6.18,3.87,3.18,0,7.27-.3v2.16c-3.35.1-5.82.14-7.41.14q-8.1,0-8.1-5.9,0-4.47,5.3-7.92Q89,8.07,88,1.89l2.21-.09A89,89,0,0,0,92.18,11.46Z"/><path class="cls-2" d="M107.08,2.81A78,78,0,0,0,105.4,17a53.14,53.14,0,0,0,.73,9.39l-2.14.17a61.68,61.68,0,0,1-.69-9.62A85.62,85.62,0,0,1,105,2.64ZM109.72,18l2,.18a11.39,11.39,0,0,0-.34,2.69,2.27,2.27,0,0,0,.95,2.1,6.83,6.83,0,0,0,3.31.58,57.32,57.32,0,0,0,5.94-.3l.05,2.17c-1.46.11-3.36.17-5.69.17-2.53,0-4.28-.35-5.23-1.05a3.84,3.84,0,0,1-1.37-3.33A15.19,15.19,0,0,1,109.72,18Zm.6-10V5.93q3.75-.28,7.59-.29c1.26,0,2.46,0,3.57.09v2c-1-.07-2.3-.11-3.78-.11Q113.86,7.65,110.32,8Z"/><path class="cls-2" d="M129,0h9.19V1.55h-7.5V25.94H129Z"/><path class="cls-2" d="M150.06,13.05a4,4,0,0,0-.05.7c0,.19,0,.39,0,.59a2.18,2.18,0,0,1,0,.25.63.63,0,0,1-.44.56c-.58.3-1.58.75-3,1.34v3.64l0,4.49a2.92,2.92,0,0,1-.76,2.41,2.51,2.51,0,0,1-1.11.45,14.68,14.68,0,0,1-2,.09,1.28,1.28,0,0,1-.64-.1A1.07,1.07,0,0,1,142,27a5.25,5.25,0,0,0-.54-1.32,18.91,18.91,0,0,0,2.37.12.94.94,0,0,0,.83-.34,1.65,1.65,0,0,0,.22-1V17.18l-1.83.68a3.07,3.07,0,0,0-1.11.57.61.61,0,0,1-.4.2c-.15,0-.26-.09-.32-.28-.18-.53-.37-1.13-.54-1.8a17.62,17.62,0,0,0,2.66-.69,14.52,14.52,0,0,0,1.54-.49V8.73h-1.08l-2.64.06a.22.22,0,0,1-.25-.24V7.29a.22.22,0,0,1,.25-.24l2.64,0h1.08V4.67A21,21,0,0,0,144.65,1a15.4,15.4,0,0,1,1.94.17q.39,0,.39.24a1.67,1.67,0,0,1-.19.6,9.67,9.67,0,0,0-.17,2.57V7.1l2.46,0a.21.21,0,0,1,.23.24V8.55a.21.21,0,0,1-.23.24l-2.46-.06v6A36.3,36.3,0,0,0,150.06,13.05Zm6.55-11.5a1.1,1.1,0,0,1-.06.31c-.05.16-.09.26-.1.32a18.88,18.88,0,0,0-.18,3.55v7.41A30.53,30.53,0,0,1,156,18a17,17,0,0,1-1,3.68,12.31,12.31,0,0,1-5.45,5.89,3,3,0,0,1-.49.2c-.12,0-.27-.12-.45-.38a3.92,3.92,0,0,0-1-1,10.25,10.25,0,0,0,5.64-5.19,17.22,17.22,0,0,0,1.23-5.16c-1.38,1-2.54,1.74-3.49,2.29a3.94,3.94,0,0,0-1,.69.43.43,0,0,1-.33.2c-.09,0-.21-.09-.33-.26a11,11,0,0,1-.81-1.51,11.84,11.84,0,0,0,1.69-.69,28.63,28.63,0,0,0,4.38-2.64V5.79a32.25,32.25,0,0,0-.25-4.65,15.72,15.72,0,0,1,1.93.18C156.47,1.36,156.61,1.44,156.61,1.55Zm-3,9.25a.55.55,0,0,1,0,.17c0,.08-.08.18-.25.31l-.74.54a.81.81,0,0,1-.36.18c-.05,0-.11-.06-.16-.18a19.9,19.9,0,0,0-2.25-4.53.45.45,0,0,1-.09-.2c0-.07.09-.16.28-.28l.69-.45a.66.66,0,0,1,.27-.13c.06,0,.12,0,.18.13A20.25,20.25,0,0,1,153.66,10.8Zm14,11.91c-.16,2.1-.62,3.43-1.39,4a5.93,5.93,0,0,1-3.42.75,5.66,5.66,0,0,1-2.88-.51q-1-.63-1-2.64V5.84a35.41,35.41,0,0,0-.19-4.7c.66,0,1.29.09,1.91.18.26.06.39.15.39.28a1.77,1.77,0,0,1-.19.63,17.87,17.87,0,0,0-.17,3.47v7.81a42.43,42.43,0,0,1,6,4.19.28.28,0,0,1,.13.19.79.79,0,0,1-.19.35l-.57.69c-.16.21-.26.32-.31.32a.35.35,0,0,1-.17-.1,45.87,45.87,0,0,0-4.88-3.83v8.35c0,.91.12,1.47.35,1.67a2.85,2.85,0,0,0,1.83.4,3.38,3.38,0,0,0,2.26-.57c.44-.37.71-1.64.83-3.84a5,5,0,0,0,1.11.6c.36.13.53.3.53.53C167.62,22.51,167.62,22.6,167.61,22.71ZM166.44,7c0,.11-.1.24-.28.39a2.14,2.14,0,0,0-.44.63,30.39,30.39,0,0,1-2.4,3.93c-.19.24-.32.37-.4.37s-.21-.11-.38-.31a2.81,2.81,0,0,0-.85-.63A22.37,22.37,0,0,0,164.24,7a4.67,4.67,0,0,0,.36-1.2,10.68,10.68,0,0,1,1.5.77C166.32,6.72,166.44,6.85,166.44,7Z"/><path class="cls-2" d="M185.9,22.38c0,.16-.07.24-.2.24l-4-.06h-2.39v.89l.06,4.21a.22.22,0,0,1-.25.25h-1.32c-.15,0-.23-.09-.23-.25l.06-4.21v-.89h-2.87l-3.95.06a.21.21,0,0,1-.23-.24V21.21c0-.17.08-.26.23-.26l3.95.06h2.87V18h-1.59l-3.63.06a.21.21,0,0,1-.23-.23l.06-2.95v-4.6l-.06-2.91a.21.21,0,0,1,.23-.24l3.63.06H181l3.6-.06c.17,0,.25.08.25.24l-.06,2.91v4.6l.06,2.95c0,.15-.08.23-.25.23L181,18h-1.67v3h2.39l4-.06c.13,0,.2.08.2.23ZM175.22,5.27a.54.54,0,0,1,.06.16c0,.07-.1.15-.32.24l-.82.34a1.63,1.63,0,0,1-.38.1c-.09,0-.16-.08-.22-.24a16.82,16.82,0,0,0-1.77-3.61.38.38,0,0,1-.06-.17c0-.08.1-.17.31-.26l.74-.34a1.23,1.23,0,0,1,.3-.1c.06,0,.14.06.22.16A28.27,28.27,0,0,1,175.22,5.27Zm2.47,6.55V8.6h-3.83v3.22Zm0,4.78V13.2h-3.83v3.4ZM179.6,5a.5.5,0,0,1,0,.16c0,.12-.1.21-.32.27l-.76.23a1.46,1.46,0,0,1-.4.1c-.07,0-.13-.07-.17-.22a20,20,0,0,0-1.29-3.92.54.54,0,0,1,0-.19c0-.09.09-.16.29-.21l.75-.25A1,1,0,0,1,178,.89c.08,0,.14.06.19.16A18.47,18.47,0,0,1,179.6,5Zm3.58,6.84V8.6h-3.87v3.22Zm0,4.78V13.2h-3.87v3.4ZM185.27,2a.51.51,0,0,1-.25.42,2.22,2.22,0,0,0-.52.84c-.45,1-1,2-1.6,3-.12.2-.22.31-.32.31a1.91,1.91,0,0,1-.43-.15,2.93,2.93,0,0,0-1-.25,24.11,24.11,0,0,0,1.8-3.6,5.8,5.8,0,0,0,.37-1.44,14.13,14.13,0,0,1,1.67.51Q185.27,1.8,185.27,2ZM198,22.76a10.09,10.09,0,0,1-1,3.65,1.77,1.77,0,0,1-1.57.95q-2.5,0-4.5-5.64a24.47,24.47,0,0,1-6.56,5.56,1.28,1.28,0,0,1-.45.17c-.1,0-.25-.13-.46-.39a3.28,3.28,0,0,0-.86-.84,21.67,21.67,0,0,0,7.73-6.39,48.7,48.7,0,0,1-1.4-8.07c-1.15.15-2.1.29-2.86.41l-.09,0c-.1,0-.15-.08-.17-.22l-.15-1.29v-.09c0-.08.07-.13.2-.15.41,0,1.4-.1,2.95-.3-.15-1.65-.22-3.47-.22-5.47A22.53,22.53,0,0,0,188.31,1a12.91,12.91,0,0,1,2,.2c.27.06.4.16.4.29a1.55,1.55,0,0,1-.15.6,10.64,10.64,0,0,0-.17,2.52c0,1.59,0,3.35.13,5.29l3.28-.45c1.07-.14,2-.27,2.68-.4L197,9l.2,0h.13c.09,0,.15.07.18.22l.15,1.23a.25.25,0,0,1,0,.08c0,.12-.06.18-.19.18l-3.54.45-3.33.44a50.36,50.36,0,0,0,.95,6.49,21.93,21.93,0,0,0,1.29-2.37,9,9,0,0,0,.88-2.64,11.81,11.81,0,0,1,1.55.63c.23.11.34.25.34.41s-.12.29-.37.57a12.56,12.56,0,0,0-.74,1.4,28.27,28.27,0,0,1-2.38,4.1c1.15,3.52,2.2,5.29,3.15,5.29.37,0,.66-.37.87-1.09a20.16,20.16,0,0,0,.48-3.18,3.77,3.77,0,0,0,.91.69q.51.26.51.51A2,2,0,0,1,198,22.76ZM196.2,6a.34.34,0,0,1,.07.19c0,.08-.07.16-.23.25l-.78.48a.85.85,0,0,1-.35.18c-.08,0-.15-.07-.22-.21a12.51,12.51,0,0,0-2.53-3.57.25.25,0,0,1-.09-.15c0-.08.09-.18.28-.29l.73-.43a.49.49,0,0,1,.25-.12c.06,0,.13,0,.22.15A14.53,14.53,0,0,1,196.2,6Z"/><path class="cls-2" d="M209.46,28.51h-9.19V26.94h7.5V2.55h1.69Z"/><path class="cls-2" d="M216.78,2H219q-.51,15.41-.51,18.57a4.58,4.58,0,0,0,1,3.38,4.75,4.75,0,0,0,3.31.91,6.88,6.88,0,0,0,5.23-2,11.77,11.77,0,0,0,2.61-5.73l2,1q-2,8.73-9.82,8.73-3.72,0-5.14-1.54c-.87-.93-1.3-2.46-1.3-4.61q0-1.65.13-8C216.67,7.52,216.74,4,216.78,2Z"/><path class="cls-2" d="M250.65,3.66l.06,2.07a11.12,11.12,0,0,0-5,1.35,12.59,12.59,0,0,0-4.44,4.2,10.35,10.35,0,0,0-1.74,5.7,6.33,6.33,0,0,0,2.75,5.42,13.33,13.33,0,0,0,6.28,2.14l-.51,2.13a13.07,13.07,0,0,1-7.78-3,8.36,8.36,0,0,1-2.81-6.54q0-6.73,6.42-10.76l1.62-.72,0-.06-1.4.23Q241.57,6,232,6.9l-.18-2Q236.1,4.61,250.65,3.66Z"/><path class="cls-2" d="M254.14,20.24a32.31,32.31,0,0,1,3.51,3.29,21.73,21.73,0,0,1,2.51,3.17l-2,1.47a23.91,23.91,0,0,0-5.79-6.5Z"/></g><g class="cls-1"><path class="cls-2" d="M13.56,67.34a.21.21,0,0,1-.24.24L9.7,67.52H8.76a10.69,10.69,0,0,0,2.07,2.26,19.66,19.66,0,0,0,2.37,1.58,3.39,3.39,0,0,0-.72,1c-.12.24-.2.35-.26.35s-.22-.08-.43-.26a13.63,13.63,0,0,1-3.66-4q0,2.82.13,6.09c.05,1.58.07,2.53.07,2.84,0,.16-.08.24-.26.24H6.72a.22.22,0,0,1-.25-.24c0-.44,0-1.54.06-3.29.06-2.07.11-3.84.14-5.29A19.25,19.25,0,0,1,1.55,75a.94.94,0,0,1-.44.23c-.07,0-.18-.11-.3-.35A3.32,3.32,0,0,0,0,73.79a18.71,18.71,0,0,0,6-6.27H4.47l-3.66.06a.21.21,0,0,1-.24-.24v-1.2a.22.22,0,0,1,.24-.25L4.47,66H6.58v-.06a14.81,14.81,0,0,0-.19-2.81q.93,0,1.83.15c.2,0,.31.12.31.25a1,1,0,0,1-.12.41,6.76,6.76,0,0,0-.16,2V66H9.7l3.62-.06a.22.22,0,0,1,.24.25Zm.52-5a.22.22,0,0,1-.25.24l-3.72-.06H4.32L.6,62.54c-.16,0-.23-.08-.23-.24V61.06c0-.16.07-.23.23-.23l3.72.05h4a25,25,0,0,0,1.37-3.41,5.25,5.25,0,0,0,.28-1.3c.68.15,1.21.29,1.61.42s.37.2.37.37a.56.56,0,0,1-.21.35,2.29,2.29,0,0,0-.45.69,29.41,29.41,0,0,1-1.32,2.88h.18l3.72-.05c.16,0,.25.07.25.23Zm-.49-7.07c0,.16-.08.23-.25.23l-3.55-.05h-5l-3.57.05c-.16,0-.23-.07-.23-.23V54.06c0-.17.07-.25.23-.25l3.57.07H6.53v-.94a9.14,9.14,0,0,0-.2-2.15,17.25,17.25,0,0,1,1.95.15c.26,0,.39.1.39.23a1.4,1.4,0,0,1-.17.54,2.88,2.88,0,0,0-.17,1.23v.94H9.79l3.55-.07a.22.22,0,0,1,.25.25ZM5.9,59.39a.49.49,0,0,1,0,.15c0,.1-.1.2-.29.27l-.75.31a1.58,1.58,0,0,1-.33.08q-.16,0-.21-.24a14.65,14.65,0,0,0-1.14-3,.43.43,0,0,1-.06-.17c0-.08.12-.16.37-.25l.68-.25a.67.67,0,0,1,.19,0c.08,0,.16.06.22.18A12.57,12.57,0,0,1,5.9,59.39Zm21.61,2.94a.21.21,0,0,1-.23.24l-3.64-.06H23.5V73.1l.05,4.47a.2.2,0,0,1-.23.23H21.84a.2.2,0,0,1-.23-.23l.06-4.47V62.51H17.2a37.89,37.89,0,0,1-.75,8.79,15.41,15.41,0,0,1-3.06,5.93c-.17.23-.31.34-.43.34a.68.68,0,0,1-.39-.24,3.16,3.16,0,0,0-1.13-.68,13.68,13.68,0,0,0,3.41-6.3,41.12,41.12,0,0,0,.6-8.44V58.22a37.57,37.57,0,0,0-.2-4.24,11,11,0,0,1,1.95.6,27.2,27.2,0,0,0,6-2.34,7.14,7.14,0,0,0,1.51-1.08A9,9,0,0,1,26,52.52a.71.71,0,0,1,.17.41c0,.15-.13.24-.39.28a3.22,3.22,0,0,0-1.1.35,39.15,39.15,0,0,1-7.47,2.71v4.61h6.44l3.64-.05a.2.2,0,0,1,.23.23Z"/><path class="cls-2" d="M29.84,52h2.24q-.51,15.41-.51,18.57c0,1.64.32,2.77,1,3.38a4.73,4.73,0,0,0,3.31.91,6.88,6.88,0,0,0,5.23-2,11.77,11.77,0,0,0,2.61-5.73l2,1q-2,8.73-9.81,8.73c-2.48,0-4.2-.51-5.14-1.54s-1.31-2.46-1.31-4.61c0-1.1.05-3.78.13-8Q29.78,54.94,29.84,52Z"/><path class="cls-2" d="M55.12,67.7,57,69q-1.44,7.24-4.86,7.24a3.55,3.55,0,0,1-3.3-2.18,19.77,19.77,0,0,1-1.53-6.92Q47,64.35,47,59.57l0-5.64h2.17l0,4.68c0,3.78.09,6.57.25,8.37q.57,6.9,2.61,6.9c.69,0,1.28-.51,1.74-1.53A25.45,25.45,0,0,0,55.12,67.7Zm4.5-11.46,2-.57q4.08,6.19,5.2,16.23l-2.26.37Q63.42,62.26,59.62,56.24Z"/><path class="cls-2" d="M69.84,66.52l2,.6A6.8,6.8,0,0,0,70.65,71q0,3.4,6.15,3.41A66.6,66.6,0,0,0,84.42,74l0,2.26c-2.35.16-4.9.23-7.68.23s-4.82-.44-6.15-1.33a4.72,4.72,0,0,1-2-4.2A8.28,8.28,0,0,1,69.84,66.52Zm.4-12.68c1.24.06,3,.09,5.36.09s5-.11,7.78-.33l.35,2A44.19,44.19,0,0,0,76,60.44l-1.35-1.5q.64-.46,5.16-3.27a39.56,39.56,0,0,1-4.84.23c-1.22,0-2.79,0-4.7-.11Z"/><path class="cls-2" d="M92.18,61.46c2-1.23,4.38-2.52,7-3.9l1.07,1.89a64.28,64.28,0,0,0-9.57,5.34Q87,67.42,87,70.61q0,3.87,6.18,3.87,3.18,0,7.27-.3v2.16c-3.35.1-5.82.14-7.41.14q-8.1,0-8.1-5.9,0-4.47,5.3-7.92Q89,58.07,88,51.89l2.21-.09A89,89,0,0,0,92.18,61.46Z"/><path class="cls-2" d="M113.33,66.26v5.93h-2v-5l-1.42.76q-3.84,2.18-3.84,4.35a2,2,0,0,0,1.35,2,13.8,13.8,0,0,0,4.45.49q3.15,0,7.31-.36l.09,2c-3.65.19-6.06.28-7.25.28-3.14,0-5.26-.36-6.36-1.1a3.77,3.77,0,0,1-1.51-3.42q0-3.13,4-5.47c1-.57,2-1.13,3.12-1.65q-.15-2.82-2-2.82-2.52,0-6.91,5.07L100.88,66a34.92,34.92,0,0,0,6.21-8.87q-2.73,0-5.49,0V55.3q3.16.06,6.33,0a26.5,26.5,0,0,0,1.35-4l2.17.39a32.7,32.7,0,0,1-1.26,3.53q4.22-.12,8-.51l.06,1.83q-4.92.4-8.88.52a30.46,30.46,0,0,1-2.52,4.26l-.76.77.09.12a5.35,5.35,0,0,1,3.57-1.52,3.25,3.25,0,0,1,2.39.91,4.27,4.27,0,0,1,1.13,2.6q2.34-1.06,6.09-2.65l.84,2.05C117,64.79,114.66,65.67,113.33,66.26Z"/><path class="cls-2" d="M126.81,50H136v1.55h-7.5V75.94h-1.69Z"/><path class="cls-2" d="M165,75.77a.21.21,0,0,1-.24.23l-3.95-.06H143.31l-4,.06a.21.21,0,0,1-.24-.23V74.38a.21.21,0,0,1,.24-.24l4,.06h7.76V67.46h-3.69l-4.21.06a.21.21,0,0,1-.23-.23V65.92a.21.21,0,0,1,.23-.23l4.21.06h3.69v-6.2H144a23,23,0,0,1-3.09,4.82c-.15.18-.27.26-.33.26s-.22-.09-.46-.29a3.44,3.44,0,0,0-1.07-.63,25,25,0,0,0,5-9.14,5.29,5.29,0,0,0,.33-1.71,10.49,10.49,0,0,1,1.83.51c.24.08.36.18.36.32a.68.68,0,0,1-.23.43,2.31,2.31,0,0,0-.49,1c-.71,1.83-1.07,2.77-1.08,2.8h6.3V55.38a25.68,25.68,0,0,0-.24-4.12c.7,0,1.4.08,2.1.16.24,0,.37.12.37.26a.74.74,0,0,1-.06.25,2,2,0,0,0-.09.3,14.58,14.58,0,0,0-.19,3.09v2.55h5.55l4.2-.06A.21.21,0,0,1,163,58v1.34a.21.21,0,0,1-.24.23l-4.2-.06H153v6.2h4.17l4.19-.06c.17,0,.25.08.25.23v1.37c0,.15-.08.23-.25.23l-4.19-.06H153V74.2h7.84l3.95-.06a.21.21,0,0,1,.24.24Z"/><path class="cls-2" d="M186.67,66.8a15.44,15.44,0,0,0-7.18-2.22,49.18,49.18,0,0,1-3.18,7.71q-1.68,3.08-3.9,3.07c-2.08,0-3.12-1.54-3.12-4.6a7.38,7.38,0,0,1,2.7-5.92,9,9,0,0,1,5.83-2.1,78.86,78.86,0,0,0,2-7.94c-2.95.21-5.65.37-8.07.47l0-1.89c2.51,0,5.57-.2,9.16-.49l1.49,1.18q-1.34,5.2-2.37,8.7a18.33,18.33,0,0,1,7.08,2,59.36,59.36,0,0,0,.6-7.3l2.13.46a62,62,0,0,1-.8,7.93,40.37,40.37,0,0,1,3.92,3l-1.31,2A36.36,36.36,0,0,0,188.53,68a15.17,15.17,0,0,1-2.82,5.72,13,13,0,0,1-4.54,3.36l-1.32-1.55a10.8,10.8,0,0,0,4.62-3.6A15,15,0,0,0,186.67,66.8Zm-9.42-2.14a6.14,6.14,0,0,0-4.34,2,5.73,5.73,0,0,0-1.64,4.09q0,2.4,1.2,2.4c.65,0,1.28-.53,1.89-1.6A35.87,35.87,0,0,0,177.25,64.66Z"/><path class="cls-2" d="M220.08,67.78s-.05.19-.15.55a12.57,12.57,0,0,0-.19,2.82v3.53l.06,2.57c0,.15-.07.23-.21.23h-1.43c-.17,0-.25-.08-.25-.23V75.59H199.66v1.74c0,.16-.08.24-.25.24H198a.21.21,0,0,1-.24-.24l.06-2.46v-3.6a25.36,25.36,0,0,0-.2-3.72,19.26,19.26,0,0,1,2,.17c.27,0,.4.14.4.28a.79.79,0,0,1-.06.25,2,2,0,0,0-.09.27,10.82,10.82,0,0,0-.2,2.69v2.67h7.91V63.68h-7v1.5a.21.21,0,0,1-.23.24h-1.42a.21.21,0,0,1-.24-.24l.06-2.67V58.42a26,26,0,0,0-.2-3.75,17.25,17.25,0,0,1,2,.19q.33,0,.33.27a1.66,1.66,0,0,1-.12.54,11.46,11.46,0,0,0-.18,2.72V62h7V54.7a24.89,24.89,0,0,0-.21-3.84,18.84,18.84,0,0,1,2.07.19q.36,0,.36.24a.72.72,0,0,1,0,.25,1.47,1.47,0,0,0-.09.29,12.79,12.79,0,0,0-.19,2.84V62h7.62V58.25a24.34,24.34,0,0,0-.21-3.75,19.87,19.87,0,0,1,2,.17c.23,0,.35.13.35.28a3.54,3.54,0,0,1-.15.51,14.57,14.57,0,0,0-.17,2.85v4l.05,2.76c0,.16-.07.25-.23.25h-1.42c-.16,0-.23-.09-.23-.25V63.68h-7.62v10.2h8.45V71.09a25.55,25.55,0,0,0-.2-3.72,17,17,0,0,1,2,.18C220,67.59,220.08,67.67,220.08,67.78Z"/><path class="cls-2" d="M239.31,57.44q-.09,3.26,0,6.51a11.34,11.34,0,0,1,.66,3.8,7.89,7.89,0,0,1-2.8,6.58,16.64,16.64,0,0,1-7,2.73l-1.26-1.81q5.17-.85,7.31-3a5.82,5.82,0,0,0,1.72-4c-.67,1.26-2,1.89-3.86,1.89a4.71,4.71,0,0,1-3.28-1.23,4.92,4.92,0,0,1,.26-7.2,5.31,5.31,0,0,1,3.34-1,4.3,4.3,0,0,1,2.91.83c0-1.87-.05-3.21-.05-4q-4.83.07-11.65.51l0-1.92q5.53-.21,11.65-.36V51.66l2.15,0q0,1.35-.06,4,5-.06,7.21-.06v1.92C244.12,57.47,241.71,57.44,239.31,57.44Zm-5,4.92a2.86,2.86,0,0,0-2.11.85,3.07,3.07,0,0,0-.83,2.24,2.65,2.65,0,0,0,.95,2.16,2.76,2.76,0,0,0,1.82.63,3,3,0,0,0,2.35-.88,2.78,2.78,0,0,0,.68-2C237.16,63.37,236.21,62.36,234.3,62.36Z"/><path class="cls-2" d="M258.43,78.51h-9.19V76.94h7.5V52.55h1.69Z"/><path class="cls-2" d="M270.66,69.92a4.09,4.09,0,0,1,3.13,1.38,4.11,4.11,0,0,1-.3,5.89,4.18,4.18,0,0,1-2.83,1.07,4.08,4.08,0,0,1-3.14-1.38,4.12,4.12,0,0,1,.31-5.89A4.16,4.16,0,0,1,270.66,69.92Zm0,1.5A2.71,2.71,0,0,0,268,74.1a2.55,2.55,0,0,0,.89,2,2.59,2.59,0,0,0,1.79.69,2.55,2.55,0,0,0,2-.88,2.7,2.7,0,0,0-.19-3.78A2.64,2.64,0,0,0,270.66,71.42Z"/></g></g></g></g></svg>