<svg xmlns="http://www.w3.org/2000/svg" viewBox="0 0 306.02 78.65"><defs><style>.cls-1{fill:#231815;}.cls-2{fill:#a5bbc3;}</style></defs><g id="レイヤー_2" data-name="レイヤー 2"><g id="レイヤー_1-2" data-name="レイヤー 1"><path class="cls-1" d="M103.05,25.58A13.33,13.33,0,0,1,104.14,20,11.53,11.53,0,0,1,107,16a12.78,12.78,0,0,1,4-2.37,12.91,12.91,0,0,1,9,0,12.78,12.78,0,0,1,4,2.37A11.51,11.51,0,0,1,127,20a13.17,13.17,0,0,1,1.1,5.56v1.34a1.28,1.28,0,0,1-1.28,1.29h-4.89a1.29,1.29,0,0,1-1.29-1.29V25.58a5,5,0,0,0-1.5-4,5.55,5.55,0,0,0-7.09,0,5,5,0,0,0-1.49,4V53.07a4.94,4.94,0,0,0,1.49,4,5.55,5.55,0,0,0,7.09,0,5,5,0,0,0,1.5-4V44.55a1.28,1.28,0,0,0-1.28-1.28H116A1.28,1.28,0,0,1,114.67,42V38A1.28,1.28,0,0,1,116,36.69H125a3,3,0,0,1,3,3V53.07a13.06,13.06,0,0,1-1.1,5.59,11.54,11.54,0,0,1-2.88,4,12.62,12.62,0,0,1-4,2.38,13.06,13.06,0,0,1-9,0,12.62,12.62,0,0,1-4-2.38,11.56,11.56,0,0,1-2.89-4,13.21,13.21,0,0,1-1.09-5.59Z"/><path class="cls-1" d="M156.72,35.26A1.28,1.28,0,0,0,158,36.54h3A7.61,7.61,0,0,0,164.1,36a4,4,0,0,0,1.79-1.58,6.8,6.8,0,0,0,.84-2.52,23.73,23.73,0,0,0,.22-3.47,23.64,23.64,0,0,0-.22-3.47,6.33,6.33,0,0,0-.91-2.56,4.15,4.15,0,0,0-1.94-1.58,8.84,8.84,0,0,0-3.29-.51H158a1.28,1.28,0,0,0-1.28,1.29Zm-7.46-20.68a1.28,1.28,0,0,1,1.28-1.29h10.71q13.16,0,13.16,15.29A19.3,19.3,0,0,1,173,36.36a10.66,10.66,0,0,1-4.18,4.74,1.28,1.28,0,0,0-.5,1.47l7.14,21.09a1.28,1.28,0,0,1-1.21,1.69h-5.17a1.28,1.28,0,0,1-1.22-.9L161.46,44a1.3,1.3,0,0,0-1.23-.9H158a1.28,1.28,0,0,0-1.28,1.29V64.07a1.28,1.28,0,0,1-1.29,1.28h-4.89a1.28,1.28,0,0,1-1.28-1.28Z"/><path class="cls-1" d="M207,31.53a.65.65,0,0,0-1.28,0l-2.85,14.39a1,1,0,0,0,1,1.22h5a1,1,0,0,0,1-1.22Zm-2.68-18.24h4.16a1.28,1.28,0,0,1,1.25,1l11.05,49.49a1.28,1.28,0,0,1-1.25,1.56h-4.8a1.28,1.28,0,0,1-1.26-1l-1.79-9.12a1.28,1.28,0,0,0-1.26-1h-8a1.29,1.29,0,0,0-1.26,1l-1.78,9.12a1.28,1.28,0,0,1-1.26,1h-4.8A1.28,1.28,0,0,1,192,63.79L203.07,14.3a1.28,1.28,0,0,1,1.25-1"/><path class="cls-1" d="M263.1,53.73a11.83,11.83,0,0,1-.91,4.6,12.19,12.19,0,0,1-2.52,3.84,12.36,12.36,0,0,1-3.77,2.63,11,11,0,0,1-4.64,1,17.18,17.18,0,0,1-4.32-.58,10.45,10.45,0,0,1-3.95-2,10.76,10.76,0,0,1-2.88-3.76A13.52,13.52,0,0,1,239,53.51V24.85a12.79,12.79,0,0,1,.88-4.76,11,11,0,0,1,2.49-3.8,11.6,11.6,0,0,1,3.83-2.52,12.93,12.93,0,0,1,4.94-.92,12.19,12.19,0,0,1,4.75.92,11.37,11.37,0,0,1,3.81,2.56,11.79,11.79,0,0,1,2.52,3.94,13.48,13.48,0,0,1,.91,5v1.65a1.28,1.28,0,0,1-1.28,1.28h-4.89a1.28,1.28,0,0,1-1.28-1.28V25.72a6,6,0,0,0-1.25-3.8A4,4,0,0,0,251,20.31c-1.85,0-3.09.58-3.69,1.72a9.08,9.08,0,0,0-.92,4.35V53a6.9,6.9,0,0,0,1,3.81A3.9,3.9,0,0,0,251,58.33a5.44,5.44,0,0,0,1.57-.25,4.14,4.14,0,0,0,1.53-.85,4.27,4.27,0,0,0,1.14-1.6,6.57,6.57,0,0,0,.44-2.56V51.79a1.28,1.28,0,0,1,1.28-1.28h4.89a1.28,1.28,0,0,1,1.28,1.28Z"/><path class="cls-1" d="M285.08,13.29h19.66A1.28,1.28,0,0,1,306,14.58V19a1.28,1.28,0,0,1-1.28,1.28h-12.2a1.29,1.29,0,0,0-1.29,1.29V34.31a1.28,1.28,0,0,0,1.29,1.28h10.3a1.28,1.28,0,0,1,1.28,1.29v4.45a1.28,1.28,0,0,1-1.28,1.28h-10.3a1.29,1.29,0,0,0-1.29,1.29V56.61a1.29,1.29,0,0,0,1.29,1.29h12.2A1.28,1.28,0,0,1,306,59.18v4.89a1.28,1.28,0,0,1-1.28,1.28H285.08a1.28,1.28,0,0,1-1.29-1.28V14.58a1.29,1.29,0,0,1,1.29-1.29"/><path class="cls-2" d="M78.6,38.35a9,9,0,0,0-16.44-3.92,3.66,3.66,0,0,1-3.08,1.62H49.92a3.66,3.66,0,0,1-3.08-1.62,9,9,0,1,0,0,9.78,3.65,3.65,0,0,1,3.08-1.61H59a3.75,3.75,0,0,1,3.15,1.63,9.85,9.85,0,0,0,1.19,1.46,3.79,3.79,0,0,1,.89,4.17A27.22,27.22,0,0,1,49.79,64.29a3.68,3.68,0,0,1-4.06-.89,9,9,0,0,0-12.81,0,3.7,3.7,0,0,1-4.07.9A27.22,27.22,0,0,1,14.36,49.8a3.7,3.7,0,0,1,.89-4.08,9,9,0,0,0,0-12.8,3.68,3.68,0,0,1-.89-4.07A27.21,27.21,0,0,1,28.78,14.39a3.76,3.76,0,0,1,4.15.87,9,9,0,1,0-1.78-10,3.77,3.77,0,0,1-2.27,2.07A33.82,33.82,0,0,0,7.36,28.88a3.77,3.77,0,0,1-2.07,2.27,9,9,0,0,0,0,16.35,3.76,3.76,0,0,1,2.07,2.26A33.77,33.77,0,0,0,28.88,71.28a3.83,3.83,0,0,1,2.27,2.07,9,9,0,0,0,16.35,0,3.82,3.82,0,0,1,2.26-2.07A33.73,33.73,0,0,0,71.28,49.76a3.87,3.87,0,0,1,2.1-2.28,9,9,0,0,0,5.22-9.13"/></g></g></svg>