<svg xmlns="http://www.w3.org/2000/svg" viewBox="0 0 276.18 85.3"><defs><style>.cls-1,.cls-2{isolation:isolate;}.cls-2{font-size:30px;fill:#424165;font-family:YuGothicUI-Regular, Yu Gothic UI;}.cls-3{letter-spacing:-0.09em;}.cls-4{letter-spacing:-0.1em;}.cls-5{letter-spacing:-0.06em;}.cls-6{letter-spacing:-0.14em;}.cls-7{letter-spacing:-0.1em;}.cls-8{letter-spacing:-0.03em;}.cls-9{letter-spacing:-0.5em;}.cls-10{letter-spacing:-0.13em;}.cls-11{letter-spacing:-0.05em;}.cls-12{letter-spacing:-0.14em;}.cls-13{letter-spacing:-0.05em;}.cls-14{letter-spacing:0.02em;}.cls-15{letter-spacing:-0.01em;}.cls-16{letter-spacing:0em;}.cls-17{letter-spacing:0em;}</style></defs><g id="レイヤー_2" data-name="レイヤー 2"><g id="レイヤー_1-2" data-name="レイヤー 1"><g id="新しいことに_挑戦_して_新しいことを_生み出す_" data-name="新しいことに 挑戦 して 新しいことを 生み出す " class="cls-1"><text class="cls-2" transform="translate(0 26.4)"><tspan class="cls-3">新</tspan><tspan class="cls-4" x="27.22" y="0">し</tspan><tspan class="cls-5" x="45.28" y="0">い</tspan><tspan class="cls-6" x="67.87" y="0">こ</tspan><tspan class="cls-7" x="83.35" y="0">と</tspan><tspan class="cls-8" x="101.67" y="0">に</tspan><tspan x="124.07" y="0"> </tspan><tspan class="cls-9" x="132.29" y="0"> </tspan><tspan x="125.51" y="0">「挑戦</tspan><tspan class="cls-9" x="200.51" y="0">」</tspan><tspan x="200.51" y="0"> </tspan><tspan class="cls-3" x="208.73" y="0"> </tspan><tspan class="cls-10" x="214.16" y="0">し</tspan><tspan class="cls-11" x="231.21" y="0">て</tspan><tspan class="cls-9" x="252.06" y="0">、</tspan></text><text class="cls-2" transform="translate(0 76.4)"><tspan class="cls-3">新</tspan><tspan class="cls-4" x="27.22" y="0">し</tspan><tspan class="cls-5" x="45.28" y="0">い</tspan><tspan class="cls-6" x="67.87" y="0">こ</tspan><tspan class="cls-12" x="83.35" y="0">と</tspan><tspan class="cls-13" x="100.68" y="0">を</tspan><tspan x="121.89" y="0"> </tspan><tspan class="cls-9" x="130.11" y="0"> </tspan><tspan x="123.33" y="0">「</tspan><tspan class="cls-14" x="138.33" y="0">生</tspan><tspan class="cls-15" x="168.78" y="0">み</tspan><tspan class="cls-16" x="195.06" y="0">出</tspan><tspan class="cls-17" x="225.12" y="0">す</tspan><tspan class="cls-9" x="249.48" y="0">」</tspan><tspan x="249.48" y="0" xml:space="preserve">  </tspan><tspan class="cls-9" x="265.91" y="0">。</tspan></text></g></g></g></svg>