<svg xmlns="http://www.w3.org/2000/svg" viewBox="0 0 285.59 26.65"><defs><style>.cls-1{fill:#344461;}</style></defs><g id="レイヤー_2" data-name="レイヤー 2"><g id="レイヤー_1-2" data-name="レイヤー 1"><path class="cls-1" d="M5.22,3.16v7.39H16.49V3.16A3.48,3.48,0,0,1,17.2.79,2.38,2.38,0,0,1,19.07,0,2.49,2.49,0,0,1,21,.78a3.37,3.37,0,0,1,.73,2.38V23.47A3.42,3.42,0,0,1,21,25.86a2.5,2.5,0,0,1-1.9.79,2.4,2.4,0,0,1-1.88-.8,3.51,3.51,0,0,1-.7-2.38V14.8H5.22v8.67a3.42,3.42,0,0,1-.74,2.39,2.5,2.5,0,0,1-1.9.79,2.4,2.4,0,0,1-1.88-.8A3.51,3.51,0,0,1,0,23.47V3.16A3.53,3.53,0,0,1,.69.79,2.4,2.4,0,0,1,2.58,0,2.49,2.49,0,0,1,4.49.78,3.37,3.37,0,0,1,5.22,3.16Z"/><path class="cls-1" d="M25.73,23.47V3.16A3.43,3.43,0,0,1,26.45.79,2.39,2.39,0,0,1,28.31,0a2.49,2.49,0,0,1,1.91.78A3.37,3.37,0,0,1,31,3.16V23.47a3.42,3.42,0,0,1-.73,2.39,2.5,2.5,0,0,1-1.91.79,2.39,2.39,0,0,1-1.85-.8A3.41,3.41,0,0,1,25.73,23.47Z"/><path class="cls-1" d="M42,15.19H40.17v8.28a3.45,3.45,0,0,1-.72,2.41,2.47,2.47,0,0,1-1.88.77,2.41,2.41,0,0,1-1.94-.81A3.62,3.62,0,0,1,35,23.47V3.64A3.35,3.35,0,0,1,35.7,1.2,3.35,3.35,0,0,1,38.15.44h8.49a25.58,25.58,0,0,1,3,.15,7.29,7.29,0,0,1,2.25.61A6.53,6.53,0,0,1,54,2.65a6.42,6.42,0,0,1,1.41,2.21,7.22,7.22,0,0,1,.49,2.66,6.41,6.41,0,0,1-1.63,4.61,9.32,9.32,0,0,1-4.93,2.44A9.4,9.4,0,0,1,52,16.75a21.65,21.65,0,0,1,2.26,3.07,21.85,21.85,0,0,1,1.55,2.93,5.8,5.8,0,0,1,.55,1.81,1.82,1.82,0,0,1-.32,1,2.28,2.28,0,0,1-.89.79,2.83,2.83,0,0,1-1.3.29,2.58,2.58,0,0,1-1.48-.41,4.08,4.08,0,0,1-1-1q-.43-.63-1.17-1.86l-2.1-3.48a19.3,19.3,0,0,0-2-2.92,4.85,4.85,0,0,0-1.8-1.37A6.12,6.12,0,0,0,42,15.19ZM45,4.36H40.17v7.08h4.68A13.49,13.49,0,0,0,48,11.12,3.76,3.76,0,0,0,50,10a3.19,3.19,0,0,0,.68-2.15A3.33,3.33,0,0,0,50.1,6a3.26,3.26,0,0,0-1.51-1.22A10.78,10.78,0,0,0,45,4.36Z"/><path class="cls-1" d="M70.41,0A13.72,13.72,0,0,1,77.3,1.63a10.56,10.56,0,0,1,4.35,4.62,15.81,15.81,0,0,1,1.47,7,17.2,17.2,0,0,1-.81,5.43A11.63,11.63,0,0,1,79.89,23a10.63,10.63,0,0,1-4,2.74,14.41,14.41,0,0,1-5.4.95,14.18,14.18,0,0,1-5.41-1,10.56,10.56,0,0,1-4-2.75,11.63,11.63,0,0,1-2.42-4.27,17.07,17.07,0,0,1-.82-5.4,16.93,16.93,0,0,1,.85-5.45A11.81,11.81,0,0,1,61.2,3.59,10.76,10.76,0,0,1,65.14.92,14.31,14.31,0,0,1,70.41,0Zm7.42,13.25a12.07,12.07,0,0,0-.91-4.9,6.86,6.86,0,0,0-2.61-3.14,7.17,7.17,0,0,0-3.9-1.06,7,7,0,0,0-2.89.59,6.35,6.35,0,0,0-2.28,1.71,8.17,8.17,0,0,0-1.51,2.88,12.88,12.88,0,0,0-.56,3.92,13.33,13.33,0,0,0,.56,4,8.23,8.23,0,0,0,1.56,2.94,6.6,6.6,0,0,0,2.32,1.75,6.94,6.94,0,0,0,2.87.58,7.05,7.05,0,0,0,3.69-1,6.9,6.9,0,0,0,2.67-3.1A12,12,0,0,0,77.83,13.25Z"/><path class="cls-1" d="M91,3.16v9L101.29,1.51A9.61,9.61,0,0,1,102.55.37,2.28,2.28,0,0,1,103.93,0a2.53,2.53,0,0,1,1.82.66,2.13,2.13,0,0,1,.69,1.61,3.19,3.19,0,0,1-1.18,2.27l-6.34,6L106.23,21a13.36,13.36,0,0,1,1.16,1.91,3.71,3.71,0,0,1,.39,1.59,2,2,0,0,1-.68,1.5,2.58,2.58,0,0,1-1.84.63,3.11,3.11,0,0,1-1.77-.47,4,4,0,0,1-1.16-1.24c-.32-.51-.6-1-.84-1.4L95.32,14,91,18.14v5.33a3.43,3.43,0,0,1-.73,2.4,2.52,2.52,0,0,1-1.9.78,2.61,2.61,0,0,1-1.29-.35,2.55,2.55,0,0,1-1-.95,3.08,3.08,0,0,1-.29-1.14q-.06-.66-.06-1.89V3.16a3.48,3.48,0,0,1,.7-2.37A2.37,2.37,0,0,1,88.41,0a2.47,2.47,0,0,1,1.9.78A3.37,3.37,0,0,1,91,3.16Z"/><path class="cls-1" d="M122,0a13.72,13.72,0,0,1,6.89,1.63,10.56,10.56,0,0,1,4.35,4.62,15.81,15.81,0,0,1,1.47,7,17.49,17.49,0,0,1-.8,5.43A11.79,11.79,0,0,1,131.45,23a10.63,10.63,0,0,1-4,2.74,14.41,14.41,0,0,1-5.4.95,14.18,14.18,0,0,1-5.41-1,10.56,10.56,0,0,1-4-2.75,11.63,11.63,0,0,1-2.42-4.27,17.07,17.07,0,0,1-.82-5.4,16.93,16.93,0,0,1,.85-5.45,11.81,11.81,0,0,1,2.47-4.21A10.76,10.76,0,0,1,116.7.92,14.31,14.31,0,0,1,122,0Zm7.42,13.25a12.07,12.07,0,0,0-.91-4.9,6.86,6.86,0,0,0-2.61-3.14A7.17,7.17,0,0,0,122,4.15a7,7,0,0,0-2.89.59,6.35,6.35,0,0,0-2.28,1.71,8.17,8.17,0,0,0-1.51,2.88,12.88,12.88,0,0,0-.56,3.92,13.33,13.33,0,0,0,.56,4,8.23,8.23,0,0,0,1.56,2.94,6.6,6.6,0,0,0,2.32,1.75,6.94,6.94,0,0,0,2.87.58,7.05,7.05,0,0,0,3.69-1,6.9,6.9,0,0,0,2.67-3.1A12,12,0,0,0,129.39,13.25Z"/><path class="cls-1" d="M144.76,23.47V3.16a3.43,3.43,0,0,1,.72-2.37A2.39,2.39,0,0,1,147.34,0a2.49,2.49,0,0,1,1.91.78A3.37,3.37,0,0,1,150,3.16V23.47a3.42,3.42,0,0,1-.73,2.39,2.5,2.5,0,0,1-1.91.79,2.41,2.41,0,0,1-1.85-.8A3.41,3.41,0,0,1,144.76,23.47Z"/><path class="cls-1" d="M153.33,20.2,166.57,4.36H155.19a2.7,2.7,0,0,1-1.8-.53,1.75,1.75,0,0,1-.6-1.39,1.89,1.89,0,0,1,.6-1.45,2.6,2.6,0,0,1,1.8-.55h14.66c1.9,0,2.85.88,2.85,2.65a3.86,3.86,0,0,1-.47,2,27.05,27.05,0,0,1-1.92,2.44L157.94,22.29h13.64a2.81,2.81,0,0,1,1.81.5,1.71,1.71,0,0,1,.59,1.4,1.87,1.87,0,0,1-.59,1.47,2.6,2.6,0,0,1-1.81.55H154.84a3.75,3.75,0,0,1-2.56-.77,2.58,2.58,0,0,1-.87-2,2.09,2.09,0,0,1,.15-.81,2.77,2.77,0,0,1,.37-.7c.16-.21.38-.49.66-.82S153.12,20.44,153.33,20.2Z"/><path class="cls-1" d="M175.51,15.56V3.16a3.43,3.43,0,0,1,.71-2.37A2.38,2.38,0,0,1,178.09,0,2.47,2.47,0,0,1,180,.79a3.48,3.48,0,0,1,.71,2.37V15.84a11.64,11.64,0,0,0,.48,3.61,4.13,4.13,0,0,0,1.71,2.25,6.36,6.36,0,0,0,3.45.8c2,0,3.48-.54,4.32-1.63A7.9,7.9,0,0,0,192,15.94V3.16a3.47,3.47,0,0,1,.7-2.38A2.42,2.42,0,0,1,194.54,0a2.49,2.49,0,0,1,1.91.78,3.37,3.37,0,0,1,.73,2.38v12.4a18.43,18.43,0,0,1-.59,5,7.75,7.75,0,0,1-2.22,3.55,8.66,8.66,0,0,1-3.27,1.9,14.27,14.27,0,0,1-4.36.6,18.3,18.3,0,0,1-5.12-.64,8.13,8.13,0,0,1-3.49-2,7.92,7.92,0,0,1-2-3.44A17.68,17.68,0,0,1,175.51,15.56Z"/><path class="cls-1" d="M209.72,22.32,205.59,5.91V23.7a3.22,3.22,0,0,1-.66,2.21,2.42,2.42,0,0,1-3.47,0,3.24,3.24,0,0,1-.67-2.22V3.3A2.56,2.56,0,0,1,201.67,1a4.25,4.25,0,0,1,2.38-.59h1.61a6.32,6.32,0,0,1,2.12.26,1.82,1.82,0,0,1,1,1,15,15,0,0,1,.72,2.23L213.22,18,217,3.88a15,15,0,0,1,.72-2.23,1.8,1.8,0,0,1,1-.95,6.36,6.36,0,0,1,2.12-.26h1.62a4.22,4.22,0,0,1,2.37.59,2.54,2.54,0,0,1,.88,2.27V23.7a3.22,3.22,0,0,1-.66,2.21,2.26,2.26,0,0,1-1.77.74,2.19,2.19,0,0,1-1.7-.74,3.18,3.18,0,0,1-.67-2.21V5.91l-4.13,16.41c-.27,1.07-.49,1.85-.66,2.35a3.19,3.19,0,0,1-.94,1.36,2.75,2.75,0,0,1-1.9.62,2.78,2.78,0,0,1-1.54-.4,2.81,2.81,0,0,1-1-1,5.69,5.69,0,0,1-.55-1.36C210,23.38,209.87,22.86,209.72,22.32Z"/><path class="cls-1" d="M229.42,23.47V3.16a3.43,3.43,0,0,1,.72-2.37A2.41,2.41,0,0,1,232,0a2.47,2.47,0,0,1,1.9.78,3.37,3.37,0,0,1,.73,2.38V23.47a3.42,3.42,0,0,1-.73,2.39,2.48,2.48,0,0,1-1.9.79,2.43,2.43,0,0,1-1.86-.8A3.46,3.46,0,0,1,229.42,23.47Z"/><path class="cls-1" d="M241.91.44h6.81a18.26,18.26,0,0,1,4.55.49,8.37,8.37,0,0,1,3.44,1.85c2.69,2.29,4,5.79,4,10.47a20.57,20.57,0,0,1-.4,4.24,12.48,12.48,0,0,1-1.25,3.45,10.85,10.85,0,0,1-2.16,2.76,9.27,9.27,0,0,1-2.27,1.49A10.32,10.32,0,0,1,252,26a20.31,20.31,0,0,1-3.19.23H242a4.21,4.21,0,0,1-2.14-.43,2,2,0,0,1-.95-1.21,8,8,0,0,1-.22-2V3.64a3.35,3.35,0,0,1,.76-2.44A3.32,3.32,0,0,1,241.91.44Zm2,4.13V22.06h3.95c.87,0,1.55,0,2-.07a6.45,6.45,0,0,0,1.53-.35,4.21,4.21,0,0,0,1.37-.79q2.63-2.22,2.62-7.63a11.19,11.19,0,0,0-1.15-5.71,5.12,5.12,0,0,0-2.84-2.42,13.91,13.91,0,0,0-4.08-.52Z"/><path class="cls-1" d="M280,23.29l-1.23-3.23H268.31l-1.23,3.3A11.49,11.49,0,0,1,265.85,26a2,2,0,0,1-1.67.68,2.44,2.44,0,0,1-1.74-.72,2.2,2.2,0,0,1-.76-1.64,3.6,3.6,0,0,1,.18-1.09c.11-.37.31-.89.58-1.56L269,4.9l.68-1.73a8.75,8.75,0,0,1,.84-1.68A3.51,3.51,0,0,1,271.73.41a3.63,3.63,0,0,1,1.8-.41,3.71,3.71,0,0,1,1.82.41,3.58,3.58,0,0,1,1.18,1.07,7.16,7.16,0,0,1,.75,1.39c.21.5.47,1.17.78,2L284.8,21.5a8.47,8.47,0,0,1,.79,2.76,2.27,2.27,0,0,1-.75,1.64,2.45,2.45,0,0,1-1.8.75,2.33,2.33,0,0,1-1.06-.22,2.24,2.24,0,0,1-.73-.6,5.48,5.48,0,0,1-.65-1.16C280.38,24.15,280.18,23.69,280,23.29Zm-10.34-7.15h7.7L273.49,5.5Z"/></g></g></svg>